<svg width="150" height="150" viewBox="0 0 150 150" fill="none" xmlns="http://www.w3.org/2000/svg">
<circle cx="75" cy="75" r="75" fill="#A4FDCD"/>
<circle cx="75" cy="75" r="75" fill="url(#paint0_radial_6485_47935)"/>
<mask id="mask0_6485_47935" style="mask-type:alpha" maskUnits="userSpaceOnUse" x="0" y="0" width="150" height="150">
<circle cx="75" cy="75" r="75" fill="#C4C4C4"/>
</mask>
<g mask="url(#mask0_6485_47935)">
<path d="M113.463 118.425L93.4148 112.528L78.2492 122.639C76.281 123.951 73.7168 123.951 71.7486 122.639L56.583 112.528L36.5346 118.425C31.547 119.892 28.1221 124.469 28.1221 129.668V144.337C28.1221 147.574 30.7456 150.197 33.9816 150.197H116.016C119.252 150.197 121.875 147.573 121.875 144.337V129.668C121.876 124.469 118.451 119.892 113.463 118.425Z" fill="url(#paint1_linear_6485_47935)"/>
<path d="M96.4844 95.5078H53.5142C47.0417 95.5078 41.7949 100.755 41.7949 107.227C41.7949 120.172 52.2885 130.665 65.2332 130.665H84.765C97.7096 130.665 108.203 120.171 108.203 107.227C108.204 100.755 102.957 95.5078 96.4844 95.5078Z" fill="url(#paint2_linear_6485_47935)"/>
<path d="M95.9643 101.367C100.216 101.367 101.885 106.881 98.3479 109.24L78.2492 122.639C76.281 123.951 73.7168 123.951 71.7486 122.639L51.6499 109.24C48.1124 106.881 49.782 101.367 54.0335 101.367H95.9643Z" fill="url(#paint3_linear_6485_47935)"/>
<path d="M56.583 112.528L71.7486 122.639C73.717 123.951 76.281 123.951 78.2492 122.639L93.4148 112.528H93.415L92.8777 112.37C90.384 111.637 88.6716 109.348 88.6716 106.749V97.4609H61.3265V106.749C61.3265 109.348 59.614 111.637 57.1203 112.37L56.583 112.528Z" fill="url(#paint4_linear_6485_47935)"/>
<path d="M61.3262 101.82C65.4297 104.012 70.0831 105.274 74.9985 105.274C79.9139 105.274 84.5673 104.012 88.6708 101.82V97.4609H61.3262V101.82Z" fill="url(#paint5_linear_6485_47935)"/>
<path d="M101.368 68.1626H100.391V44.7244L49.6078 48.6308V68.1626H48.6311C45.9343 68.1626 43.748 70.3486 43.748 73.0457C43.748 75.7425 45.9341 77.9287 48.6311 77.9287H49.7064C50.7073 91.0363 61.6356 101.367 74.9996 101.367C88.3636 101.367 99.2918 91.0363 100.292 77.9287H101.368C104.065 77.9287 106.251 75.7425 106.251 73.0457C106.251 70.3489 104.064 68.1626 101.368 68.1626Z" fill="url(#paint6_linear_6485_47935)"/>
<path d="M92.5778 48.6313V46.6782L49.6075 48.6313V68.1631H48.9096C46.3554 68.1631 44.0277 70.0008 43.7733 72.5424C43.4806 75.4652 45.7681 77.9293 48.631 77.9293H49.7064C50.7068 91.0368 61.635 101.368 74.999 101.368C76.335 101.368 77.6379 101.237 78.9178 101.038C66.748 99.1603 57.4203 88.6718 57.4203 75.9762V60.3505C57.4203 56.0357 60.9181 52.5377 65.2331 52.5377H88.6713C90.8287 52.5377 92.5778 50.7887 92.5778 48.6313Z" fill="url(#paint7_linear_6485_47935)"/>
<path d="M63.2793 74.0226C62.1997 74.0226 61.3262 73.1481 61.3262 72.0695V70.1164C61.3262 69.0378 62.1997 68.1633 63.2793 68.1633C64.3588 68.1633 65.2324 69.0378 65.2324 70.1164V72.0695C65.2326 73.1481 64.359 74.0226 63.2793 74.0226Z" fill="url(#paint8_radial_6485_47935)"/>
<path d="M86.7177 74.0226C85.6382 74.0226 84.7646 73.1481 84.7646 72.0695V70.1164C84.7646 69.0378 85.6382 68.1633 86.7177 68.1633C87.7973 68.1633 88.6708 69.0378 88.6708 70.1164V72.0695C88.6708 73.1481 87.7973 74.0226 86.7177 74.0226Z" fill="url(#paint9_radial_6485_47935)"/>
<path d="M61.3244 66.2102C60.4031 66.2102 59.5828 65.5561 59.4073 64.6166C59.207 63.5571 59.9051 62.5365 60.9658 62.3373L64.8722 61.6048C65.9498 61.4025 66.9551 62.1055 67.1515 63.165C67.3519 64.2245 66.6538 65.2452 65.5931 65.4444L61.6867 66.1769C61.5645 66.1997 61.4426 66.2102 61.3244 66.2102Z" fill="url(#paint10_linear_6485_47935)"/>
<path d="M88.6729 66.21C88.5547 66.21 88.4325 66.1995 88.3106 66.1767L84.4042 65.4441C83.3437 65.2447 82.6456 64.2243 82.8457 63.1648C83.044 62.1053 84.0512 61.4032 85.1251 61.6045L89.0315 62.3371C90.0919 62.5365 90.79 63.5569 90.5899 64.6164C90.4145 65.5556 89.5944 66.21 88.6729 66.21Z" fill="url(#paint11_linear_6485_47935)"/>
<path d="M67.1862 31.0525C57.4777 31.0525 49.6074 38.9228 49.6074 48.6312H90.6244C99.59 48.6312 106.988 41.9193 108.067 33.2462C108.212 32.0827 107.287 31.0525 106.115 31.0525C106.115 31.0525 67.1862 31.0525 67.1862 31.0525Z" fill="url(#paint12_linear_6485_47935)"/>
<path d="M106.115 31.0525H71.7745C69.0265 33.2737 66.9592 36.3032 65.9397 39.781C65.2144 42.2551 67.1377 44.7248 69.716 44.7248H101.648C105.106 41.9333 107.495 37.8707 108.07 33.2357C108.213 32.0759 107.284 31.0525 106.115 31.0525Z" fill="url(#paint13_linear_6485_47935)"/>
<path d="M67.1857 150.197H63.2793V126.759C63.2793 125.68 64.1538 124.806 65.2324 124.806C66.3112 124.806 67.1855 125.681 67.1855 126.759L67.1857 150.197Z" fill="url(#paint14_linear_6485_47935)"/>
<path d="M86.7179 150.197H82.8115V126.759C82.8115 125.68 83.686 124.806 84.7646 124.806C85.8434 124.806 86.7177 125.681 86.7177 126.759L86.7179 150.197Z" fill="url(#paint15_linear_6485_47935)"/>
<path d="M74.9984 87.6951C72.0686 87.6951 69.3639 86.7547 67.7673 85.1793C66.9987 84.4221 66.991 83.1851 67.7482 82.4174C68.5055 81.6497 69.7453 81.6411 70.5102 82.3983C71.1606 83.0401 72.7267 83.7887 74.9984 83.7887C77.27 83.7887 78.8361 83.0401 79.4866 82.3983C80.2515 81.6411 81.4913 81.6497 82.2485 82.4174C83.0057 83.1851 82.9981 84.4221 82.2294 85.1793C80.6331 86.7547 77.9281 87.6951 74.9984 87.6951Z" fill="#A06E50"/>
</g>
<defs>
<radialGradient id="paint0_radial_6485_47935" cx="0" cy="0" r="1" gradientUnits="userSpaceOnUse" gradientTransform="translate(24.5 23.5) rotate(51.2813) scale(151.879)">
<stop offset="0.360011" stop-color="#A4FDCD"/>
<stop offset="1" stop-color="#A6E4FF"/>
</radialGradient>
<linearGradient id="paint1_linear_6485_47935" x1="34.3751" y1="120.313" x2="123.438" y2="140.625" gradientUnits="userSpaceOnUse">
<stop stop-color="#C4EB99"/>
<stop offset="1" stop-color="#D1FAA3"/>
</linearGradient>
<linearGradient id="paint2_linear_6485_47935" x1="45.313" y1="100" x2="106.251" y2="125" gradientUnits="userSpaceOnUse">
<stop stop-color="#ACE694"/>
<stop offset="1" stop-color="#B4F09B"/>
</linearGradient>
<linearGradient id="paint3_linear_6485_47935" x1="53.1251" y1="103.125" x2="98.4376" y2="114.062" gradientUnits="userSpaceOnUse">
<stop stop-color="#5DCC94"/>
<stop offset="1" stop-color="#69E8A9"/>
</linearGradient>
<linearGradient id="paint4_linear_6485_47935" x1="62.5" y1="100" x2="89.0625" y2="123.438" gradientUnits="userSpaceOnUse">
<stop stop-color="#C98D69"/>
<stop offset="1" stop-color="#D49774"/>
</linearGradient>
<linearGradient id="paint5_linear_6485_47935" x1="62.4996" y1="100" x2="89.0621" y2="106.25" gradientUnits="userSpaceOnUse">
<stop stop-color="#A06E50"/>
<stop offset="1" stop-color="#A06E50" stop-opacity="0"/>
</linearGradient>
<linearGradient id="paint6_linear_6485_47935" x1="50.0003" y1="48.4376" x2="95.3128" y2="96.8751" gradientUnits="userSpaceOnUse">
<stop offset="0.307876" stop-color="#CD916E"/>
<stop offset="1" stop-color="#EBB798"/>
</linearGradient>
<linearGradient id="paint7_linear_6485_47935" x1="48.4376" y1="45.3126" x2="68.1629" y2="101.368" gradientUnits="userSpaceOnUse">
<stop stop-color="#B67F5F"/>
<stop offset="1" stop-color="#B67F5F" stop-opacity="0"/>
</linearGradient>
<radialGradient id="paint8_radial_6485_47935" cx="0" cy="0" r="1" gradientUnits="userSpaceOnUse" gradientTransform="translate(62.5014 69.9157) rotate(71.565) scale(4.94066 3.29378)">
<stop stop-color="#040404"/>
<stop offset="1" stop-color="#767676"/>
</radialGradient>
<radialGradient id="paint9_radial_6485_47935" cx="0" cy="0" r="1" gradientUnits="userSpaceOnUse" gradientTransform="translate(85.9399 69.9157) rotate(71.565) scale(4.94066 3.29378)">
<stop stop-color="#040404"/>
<stop offset="1" stop-color="#767676"/>
</radialGradient>
<linearGradient id="paint10_linear_6485_47935" x1="63.2794" y1="61.5701" x2="63.2794" y2="66.2102" gradientUnits="userSpaceOnUse">
<stop stop-color="#4C3D45"/>
<stop offset="1" stop-color="#6B5560" stop-opacity="0.76"/>
</linearGradient>
<linearGradient id="paint11_linear_6485_47935" x1="86.7178" y1="61.5701" x2="86.7178" y2="66.21" gradientUnits="userSpaceOnUse">
<stop stop-color="#4C3D45"/>
<stop offset="1" stop-color="#6B5560" stop-opacity="0.76"/>
</linearGradient>
<linearGradient id="paint12_linear_6485_47935" x1="51.0131" y1="43.0824" x2="105.438" y2="24.3889" gradientUnits="userSpaceOnUse">
<stop stop-color="#4D3D45"/>
<stop offset="1" stop-color="#78606C"/>
</linearGradient>
<linearGradient id="paint13_linear_6485_47935" x1="66.3373" y1="41.8789" x2="105.033" y2="26.8409" gradientUnits="userSpaceOnUse">
<stop stop-color="#8A6F7D"/>
<stop offset="1" stop-color="#6E5A64" stop-opacity="0"/>
</linearGradient>
<linearGradient id="paint14_linear_6485_47935" x1="64.0623" y1="135.937" x2="67.1873" y2="135.937" gradientUnits="userSpaceOnUse">
<stop stop-color="#FFD164"/>
<stop offset="1" stop-color="#FFBE64"/>
</linearGradient>
<linearGradient id="paint15_linear_6485_47935" x1="83.5945" y1="135.937" x2="86.7195" y2="135.937" gradientUnits="userSpaceOnUse">
<stop stop-color="#FFD164"/>
<stop offset="1" stop-color="#FFBE64"/>
</linearGradient>
</defs>
</svg>
