<svg width="24" height="24" viewBox="0 0 24 24" fill="none" xmlns="http://www.w3.org/2000/svg">
<path fill-rule="evenodd" clip-rule="evenodd" d="M7.6001 12C7.6001 11.8896 7.68964 11.8 7.8001 11.8C7.91055 11.8 8.0001 11.8896 8.0001 12C8.0001 12.1105 7.91055 12.2 7.8001 12.2C7.68964 12.2 7.6001 12.1105 7.6001 12ZM7.8001 9.80005C6.58507 9.80005 5.6001 10.785 5.6001 12C5.6001 13.2151 6.58507 14.2 7.8001 14.2C9.01512 14.2 10.0001 13.2151 10.0001 12C10.0001 10.785 9.01512 9.80005 7.8001 9.80005ZM16.0001 12C16.0001 11.8896 16.0896 11.8 16.2001 11.8C16.3106 11.8 16.4001 11.8896 16.4001 12C16.4001 12.1105 16.3106 12.2 16.2001 12.2C16.0896 12.2 16.0001 12.1105 16.0001 12ZM16.2001 9.80005C14.9851 9.80005 14.0001 10.785 14.0001 12C14.0001 13.2151 14.9851 14.2 16.2001 14.2C17.4151 14.2 18.4001 13.2151 18.4001 12C18.4001 10.785 17.4151 9.80005 16.2001 9.80005Z" fill="#637085"/>
</svg>
