<svg width="150" height="150" viewBox="0 0 150 150" fill="none" xmlns="http://www.w3.org/2000/svg">
<circle cx="75" cy="75" r="74.5" stroke="#C6C8CC" stroke-dasharray="8 8"/>
<rect x="51" y="51" width="48" height="48" rx="24" fill="#333333" fill-opacity="0.7"/>
<path d="M74.9996 72.7146C75.9236 72.7146 76.7948 73.075 77.446 73.7255C78.0972 74.3848 78.458 75.255 78.458 76.1692C78.4492 77.1273 78.062 77.9888 77.4372 78.6129C76.8124 79.237 75.95 79.6237 74.9996 79.6237C74.0756 79.6237 73.2132 79.2634 72.5532 78.6129C71.902 77.9536 71.5412 77.0922 71.5412 76.1692C71.5324 75.255 71.8932 74.3936 72.5444 73.7343C73.2044 73.075 74.0756 72.7146 74.9996 72.7146ZM74.9996 74.0332C74.4276 74.0332 73.8908 74.2529 73.4772 74.6661C73.0724 75.0704 72.8524 75.6066 72.8612 76.1604V76.1692C72.8612 76.7406 73.0812 77.2768 73.486 77.6811C73.8908 78.0855 74.4276 78.3052 74.9996 78.3052C76.1788 78.3052 77.1292 77.3471 77.138 76.1692C77.138 75.5978 76.918 75.0616 76.5132 74.6573C76.1084 74.2529 75.5716 74.0332 74.9996 74.0332ZM79.9364 72.5037C80.3764 72.5037 80.7372 72.8641 80.7372 73.3036C80.7372 73.7431 80.3764 74.0947 79.9364 74.0947C79.4964 74.0947 79.1444 73.7431 79.1444 73.3036C79.1444 72.8641 79.4964 72.5037 79.9364 72.5037Z" fill="white"/>
<path opacity="0.5" d="M79.7871 69.9281L79.6992 69.7347C79.4616 69.2337 79.1888 68.6535 79.0216 68.3195C78.6167 67.5284 77.9216 67.0889 77.068 67.0801H72.9232C72.0696 67.0889 71.3832 67.5284 70.9784 68.3195C70.8024 68.6711 70.5032 69.304 70.2568 69.8226L70.204 69.9281C70.1776 69.9984 70.1072 70.0336 70.0368 70.0336C67.916 70.0336 66.2 71.7565 66.2 73.8661V79.0875C66.2 81.1972 67.916 82.9201 70.0368 82.9201H79.9632C82.0752 82.9201 83.7999 81.1972 83.7999 79.0875V73.8661C83.7999 71.7565 82.0752 70.0336 79.9632 70.0336C79.884 70.0336 79.8223 69.9896 79.7871 69.9281Z" fill="white"/>
</svg>
